<?xml version="1.0" encoding="utf-8"?>
<!-- Generator: Adobe Illustrator 26.0.1, SVG Export Plug-In . SVG Version: 6.00 Build 0)  -->
<svg version="1.1" id="Слой_1" xmlns="http://www.w3.org/2000/svg" xmlns:xlink="http://www.w3.org/1999/xlink" x="0px" y="0px"
	 viewBox="0 0 1000 1000" style="enable-background:new 0 0 1000 1000;" xml:space="preserve">
<style type="text/css">
	.st0{fill:#FF0000;}
</style>
<polyline class="st0" points="48.26,153.45 192.77,70.21 470.04,120 745.79,47.23 937.28,224.94 828.51,355.15 954.13,537.45 
	839.23,768.77 932.68,960.26 794.81,966.38 698.3,876 500,940.34 460.85,906.64 368.94,975.57 180.51,960.26 44.17,872.94 
	93.19,733.53 57.96,523.66 97.79,319.91 44.17,206.55 "/>
<polyline class="st0" points="44.17,141.7 192.26,56.94 196.34,16.09 29.36,16.09 31.4,141.7 "/>
<polygon class="st0" points="692.34,902.72 779.15,972.17 538.81,972.17 "/>
<polygon class="st0" points="406.38,975.57 460.51,933.36 497.62,975.57 "/>
<polygon class="st0" points="962.55,483.83 868.34,360.51 944.17,253.28 975.57,253.28 "/>
<polygon class="st0" points="796.34,28.09 954.13,184.34 954.13,28.09 "/>
<polygon class="st0" points="888.77,764.17 975.57,577.28 975.57,937.45 "/>
<polygon class="st0" points="219.15,55.4 461.87,100 725.36,21.7 219.15,21.7 "/>
</svg>
