<?xml version="1.0" encoding="utf-8"?>
<!-- Generator: Adobe Illustrator 26.0.1, SVG Export Plug-In . SVG Version: 6.00 Build 0)  -->
<svg version="1.1" id="Слой_1" xmlns="http://www.w3.org/2000/svg" xmlns:xlink="http://www.w3.org/1999/xlink" x="0px" y="0px"
	 viewBox="0 0 1000 1000" style="enable-background:new 0 0 1000 1000;" xml:space="preserve">
<style type="text/css">
	.st0{fill:#FF0000;}
</style>
<path class="st0" d="M22.5,95.5l2.76-4.74L61.5,28.5l38,23l51-30l153,48l94-39l150.39,28l93.61,55l51-82l155-1l93-20l36,44l-82,84
	l70,37l-3,71l-43,19l33,74l-35,30l56,55l-10,130l-107,35l99,136l-7,95l-38,78l32,45l-41,29l-141-6c0,0-28-40-34-39s-76,26-81,28
	s-122.98,17-122.98,17l-70.02-42l-117,65l-90-48l-98-2l-47,36l-77-12.7l-6-141.3l96-70l-84-106l2-74l73.43-74.5L35.5,365.5l-26-116
	l48-42L22.5,95.5z"/>
<polygon class="st0" points="634,86 557,39 466,21 574,8 700.83,8 "/>
<polygon class="st0" points="880,603 974,717 996,672 970,622 1000,579 979,569 "/>
<polygon class="st0" points="397,985 450,948 497,989 392,993 388,985 "/>
<path class="st0" d="M675,967c1,0,34-21,34-21l17,26l-27,23L675,967z"/>
<polygon class="st0" points="925,901 958,935 994,906 994,820.32 994,744.06 976.5,716.83 964,726 958,831 "/>
<polygon class="st0" points="91.13,503 31,375 14,384 9.5,554.79 19,567 "/>
<polygon class="st0" points="83,754 47,705 21,715 17,737 33,745 17,759.55 17,779.98 35.31,783.55 "/>
</svg>
