<?xml version="1.0" encoding="utf-8"?>
<!-- Generator: Adobe Illustrator 26.0.1, SVG Export Plug-In . SVG Version: 6.00 Build 0)  -->
<svg version="1.1" id="Слой_1" xmlns="http://www.w3.org/2000/svg" xmlns:xlink="http://www.w3.org/1999/xlink" x="0px" y="0px"
	 viewBox="0 0 1000 1000" style="enable-background:new 0 0 1000 1000;" xml:space="preserve">
<style type="text/css">
	.st0{fill:#FF0000;}
</style>
<polygon class="st0" points="76.85,169.79 229.02,114.64 521.11,176.94 722.3,95.23 883.66,176.94 877.53,393.45 785.62,483.32 
	919.4,640.6 879.57,846.89 760.09,952.09 498.13,874.47 99.32,952.09 30.89,836.68 117.7,539.49 30.89,328.09 "/>
<path class="st0" d="M251.49,89.62c0,0,270.13,52.6,267.57,52.09c-2.55-0.51,194.04-72.51,194.04-72.51L517.53,24.26L251.49,89.62z"
	/>
<polygon class="st0" points="859.15,483.06 925.02,396.51 969.45,430.98 964.09,594.13 "/>
<path class="st0" d="M280.94,966.38c24.64-6.38,208.68-53.11,208.68-53.11l229.45,64.34L280.94,966.38z"/>
<polygon class="st0" points="75.83,147.32 226.98,95.23 75.83,95.23 "/>
<polygon class="st0" points="814.72,958.72 891.32,871.91 916.85,806.04 956.17,882.38 946.47,985.79 868.85,958.21 "/>
<polygon class="st0" points="935.74,764.68 956.17,647.23 977.62,747.83 969.45,853.02 "/>
</svg>
