<?xml version="1.0" encoding="utf-8"?>
<!-- Generator: Adobe Illustrator 26.0.1, SVG Export Plug-In . SVG Version: 6.00 Build 0)  -->
<svg version="1.1" id="Layer_1" xmlns="http://www.w3.org/2000/svg" xmlns:xlink="http://www.w3.org/1999/xlink" x="0px" y="0px"
	 viewBox="0 0 24 24" style="enable-background:new 0 0 24 24;" xml:space="preserve">
<style type="text/css">
	.st0{fill:#FCFCEE;}
</style>
<path class="st0" d="M23.9,3.9C23.5,4.5,22.7,5,22,5.2v4.5c0,2-1.5,3.3-4,3.3s-4-1.3-4-3.3V5.2c-0.8-0.2-1.5-0.7-1.9-1.3
	c-0.3-0.4,0-1,0.4-1.1C13.1,2.7,14,2.5,15,2.3C15.8,1.5,16.8,1,18,1s2.2,0.5,2.9,1.3c1,0.2,1.9,0.3,2.5,0.5
	C23.9,2.9,24.1,3.5,23.9,3.9L23.9,3.9z M18,15c-3.6,0-6-2.1-6-5.3V7l-0.4-0.3C11,6.2,10.3,6,9.5,6c-1,0-2,0.4-2.7,1.2
	C6.5,7.1,6.1,7,5.8,7C3.7,7,2,8.7,2,10.7c-1.2,0.6-2,1.9-2,3.3s0.8,2.7,2,3.3c0,1.8,1.3,3.3,3,3.6V22c0,1.1,0.9,2,2,2s2-0.9,2-2
	v-0.1C9.2,22,9.3,22,9.5,22c0.8,0,1.5-0.2,2.1-0.7c0.6,0.4,1.4,0.7,2.1,0.7c0.4,0,0.9-0.1,1.2-0.2V22c0,1.1,0.9,2,2,2s2-0.9,2-2
	v-1.3c1.3-0.6,2.2-1.9,2.2-3.4c1.2-0.6,2-1.9,2-3.3c0-0.4-0.1-0.8-0.2-1.2C22,14.2,20.2,15,18,15L18,15z"/>
</svg>
