<?xml version="1.0" encoding="utf-8"?>
<!-- Generator: Adobe Illustrator 26.0.1, SVG Export Plug-In . SVG Version: 6.00 Build 0)  -->
<svg version="1.1" id="Layer_1" xmlns="http://www.w3.org/2000/svg" xmlns:xlink="http://www.w3.org/1999/xlink" x="0px" y="0px"
	 viewBox="0 0 512 512" style="enable-background:new 0 0 512 512;" xml:space="preserve">
<style type="text/css">
	.st0{fill:#FCFCEE;}
</style>
<path class="st0" d="M512,394.7c0,64.7-52.6,117.3-117.3,117.3s-117.3-52.6-117.3-117.3S330,277.3,394.7,277.3S512,330,512,394.7z
	 M117.3,277.3C52.6,277.3,0,330,0,394.7S52.6,512,117.3,512s117.3-52.6,117.3-117.3S182,277.3,117.3,277.3z M426.7,85.3v-32
	c0-29.5-23.9-53.3-53.3-53.3S320,23.9,320,53.3v32H426.7z M405.3,128H106.7C47.8,128,0,175.8,0,234.7v51.6
	c29.2-31.6,71-51.6,117.3-51.6s88.1,19.9,117.3,51.6v-72.9c0-11.8,9.6-21.3,21.3-21.3c11.8,0,21.3,9.6,21.3,21.3v72.9
	c29.2-31.6,71-51.6,117.3-51.6s88.1,19.9,117.3,51.6v-51.6C512,175.8,464.2,128,405.3,128z M192,85.3v-32C192,23.9,168.1,0,138.7,0
	h-0.2C109,0,84.9,24.1,84.8,53.5l-0.1,31.8H192z"/>
</svg>
