<?xml version="1.0" encoding="utf-8"?>
<!-- Generator: Adobe Illustrator 26.0.1, SVG Export Plug-In . SVG Version: 6.00 Build 0)  -->
<svg version="1.1" id="Layer_1" xmlns="http://www.w3.org/2000/svg" xmlns:xlink="http://www.w3.org/1999/xlink" x="0px" y="0px"
	 viewBox="0 0 512 512" style="enable-background:new 0 0 512 512;" xml:space="preserve">
<style type="text/css">
	.st0{fill:#FCFCEE;}
</style>
<path class="st0" d="M507.5,79.5C491,47.4,465,21.2,432.9,4.5c-25-11.2-54.4,0-65.6,25.1C364.5,36,363,43,363.1,50v33.4
	C202.7-1.8-1.7,202.9,83.5,363.1H50c-27.4-0.1-49.7,22-49.8,49.4c0,7,1.4,14,4.3,20.4c16.6,32,42.8,58.1,74.9,74.5
	c25,11.2,54.4,0,65.5-25.1c2.9-6.4,4.3-13.4,4.3-20.5v-33.6c162,86.9,364.2-123.8,279.5-279.1H462c27.4,0.1,49.7-22,49.8-49.4
	C511.8,92.9,510.3,85.9,507.5,79.5z M312.4,330.4c-39.4,32.5-92.7,45.3-133.2,16.4c-8.9-7.7-9.9-21.2-2.1-30.1
	c7-8,18.8-9.7,27.7-3.9c18.4,13.9,53.5,7.4,80-14.9c9-7.6,22.5-6.5,30.1,2.5S321.4,322.8,312.4,330.4L312.4,330.4z"/>
</svg>
