<?xml version="1.0" encoding="utf-8"?>
<!-- Generator: Adobe Illustrator 26.0.1, SVG Export Plug-In . SVG Version: 6.00 Build 0)  -->
<svg version="1.1" id="Layer_1" xmlns="http://www.w3.org/2000/svg" xmlns:xlink="http://www.w3.org/1999/xlink" x="0px" y="0px"
	 viewBox="0 0 24 24" style="enable-background:new 0 0 24 24;" xml:space="preserve">
<style type="text/css">
	.st0{fill:#FCFCEE;}
</style>
<path class="st0" d="M22.6,3.1C21.8,2.9,21,3.3,20.7,4c-1.8,3.9-4.6,5.6-6.7,6.4V10c0-0.6-0.4-1-1-1s-1,0.4-1,1v0.9
	C11.4,11,11.1,11,11,11l0,0l0,0h-1v-1c0-0.6-0.4-1-1-1s-1,0.4-1,1v1H6v-1c0-0.6-0.4-1-1-1s-1,0.4-1,1v1H1c-0.6,0-1,0.4-1,1
	s0.4,1,1,1h2c-0.6,0.8-1,1.9-1,3c0,2.8,2.2,5,5,5h4c2.8,0,5-2.2,5-5c0-0.5-0.1-1-0.2-1.5c1.7,1,3.6,2.7,5,5.6c0.3,0.6,0.9,1,1.5,1
	c0.1,0,0.3,0,0.4,0c0.8-0.2,1.4-0.9,1.4-1.7V4.8C24,4,23.4,3.3,22.6,3.1z M14,16c0,1.7-1.3,3-3,3H7c-1.7,0-3-1.3-3-3s1.3-3,3-3
	c0,0,4.2,0,4.3,0C12.8,13.2,14,14.5,14,16z"/>
</svg>
