<?xml version="1.0" encoding="utf-8"?>
<!-- Generator: Adobe Illustrator 26.0.1, SVG Export Plug-In . SVG Version: 6.00 Build 0)  -->
<svg version="1.1" id="Layer_1" xmlns="http://www.w3.org/2000/svg" xmlns:xlink="http://www.w3.org/1999/xlink" x="0px" y="0px"
	 viewBox="0 0 512 512" style="enable-background:new 0 0 512 512;" xml:space="preserve">
<style type="text/css">
	.st0{fill:#FCFCEE;}
</style>
<path class="st0" d="M27.6,164.4c-8.3-8.3-8.3-21.8,0-30.2l42.7-42.7c6.1-6.1,15.3-7.9,23.3-4.6s13.2,11.1,13.2,19.7v192
	c0,11.8-9.5,21.3-21.3,21.3S64,310.4,64,298.7V158.2l-6.3,6.3C49.4,172.8,35.9,172.8,27.6,164.4L27.6,164.4z M511.5,293.9
	c-2.6-11.5-14.1-18.8-25.5-16.1L16.6,384.5c-11.5,2.6-18.7,14-16.1,25.5c2.2,9.9,11.1,16.6,20.8,16.6c1.6,0,3.2-0.2,4.8-0.5
	l469.3-106.7C506.9,316.8,514.1,305.4,511.5,293.9z M486.2,405.8l-298.7,64c-11.5,2.5-18.9,13.8-16.4,25.3c2.2,10,11,16.9,20.8,16.9
	c1.5,0,3-0.1,4.5-0.5l298.7-64c11.5-2.5,18.9-13.8,16.4-25.3C509.1,410.7,497.8,403.3,486.2,405.8L486.2,405.8z M341.3,160V74.7
	C341.3,33.5,374.8,0,416,0s74.7,33.5,74.7,74.7V160c0,41.2-33.5,74.7-74.7,74.7S341.3,201.2,341.3,160L341.3,160z M384,160
	c0,17.6,14.4,32,32,32s32-14.4,32-32V74.7c0-17.6-14.4-32-32-32s-32,14.4-32,32V160L384,160z M149.3,202.7v-85.3
	c0-41.2,33.5-74.7,74.7-74.7s74.7,33.5,74.7,74.7v85.3c0,41.2-33.5,74.7-74.7,74.7S149.3,243.8,149.3,202.7z M192,202.7
	c0,17.6,14.4,32,32,32s32-14.4,32-32v-85.3c0-17.6-14.4-32-32-32s-32,14.4-32,32V202.7z"/>
</svg>
