<?xml version="1.0" encoding="utf-8"?>
<!-- Generator: Adobe Illustrator 26.0.1, SVG Export Plug-In . SVG Version: 6.00 Build 0)  -->
<svg version="1.1" id="Layer_1" xmlns="http://www.w3.org/2000/svg" xmlns:xlink="http://www.w3.org/1999/xlink" x="0px" y="0px"
	 viewBox="0 0 512 512" style="enable-background:new 0 0 512 512;" xml:space="preserve">
<style type="text/css">
	.st0{fill:#FCFCEE;}
</style>
<path class="st0" d="M256.2,165.8c21.5-21.5,56.7-21.8,78.5,0l22.2,22.2c4.9,4.9,13.2,4.9,18.1,0L502,61c-17.1-36-54-61-96.5-61
	H213.3c-58.9,0-106.7,47.8-106.7,106.7v128c0,22.8,7.3,43.9,19.4,61.2L256.2,165.8z M202.7,64c17.7,0,32,14.3,32,32s-14.3,32-32,32
	s-32-14.3-32-32S185,64,202.7,64z M263,508.2L78,456.8C21.3,441-12,382.1,3.8,325.4L38.2,202c4.9-17.5,13.9-32.9,25.8-45.2v78.1
	c0,82.6,66.8,149.3,149.3,149.3h195l-13.9,49.9C378.6,490.8,319.7,524.1,263,508.2L263,508.2z M512,111.1v123.5
	c0,58.9-47.8,106.7-106.7,106.7h-192c-20.7,0-39.9-6-56.3-16L286.3,196c4.9-4.9,13.2-4.9,18.1,0l22.2,22.2
	c20.9,20.9,57.4,20.9,78.3,0L512,111.1L512,111.1z"/>
</svg>
