<?xml version="1.0" encoding="utf-8"?>
<!-- Generator: Adobe Illustrator 26.0.1, SVG Export Plug-In . SVG Version: 6.00 Build 0)  -->
<svg version="1.1" id="Layer_1" xmlns="http://www.w3.org/2000/svg" xmlns:xlink="http://www.w3.org/1999/xlink" x="0px" y="0px"
	 viewBox="0 0 512 512" style="enable-background:new 0 0 512 512;" xml:space="preserve">
<style type="text/css">
	.st0{fill:#FCFCEE;}
</style>
<path class="st0" d="M227.1,298.7H512V320c0,47.1-38.2,85.3-85.3,85.3H224c-31.3,0-56.3-26.9-53.1-58.8
	C173.7,318.7,199.1,298.7,227.1,298.7L227.1,298.7z M227.1,256H512V85.3C512,38.2,473.8,0,426.7,0H256c-47.1,0-85.3,38.2-85.3,85.3
	v188C186.8,262.4,206.3,256,227.1,256z M128.6,362.7c-0.3-3-0.5-6.1-0.6-9.1h0V106.7H85.3C38.2,106.7,0,144.9,0,192v188
	c16.1-10.9,35.6-17.3,56.4-17.3H128.6z M224,448c-27.1,0-53-11.5-71.2-31.6c-3.2-3.5-6-7.2-8.6-11.1H56.4
	c-27.9,0-53.3,20.1-56.1,47.8C-2.9,485.1,22.1,512,53.3,512H256c39.8,0,73.2-27.2,82.6-64L224,448L224,448z"/>
</svg>
