<?xml version="1.0" encoding="utf-8"?>
<!-- Generator: Adobe Illustrator 26.0.1, SVG Export Plug-In . SVG Version: 6.00 Build 0)  -->
<svg version="1.1" id="Layer_1" xmlns="http://www.w3.org/2000/svg" xmlns:xlink="http://www.w3.org/1999/xlink" x="0px" y="0px"
	 viewBox="0 0 24 24" style="enable-background:new 0 0 24 24;" xml:space="preserve">
<style type="text/css">
	.st0{fill:#FCFCEE;}
</style>
<path class="st0" d="M2,2.5C2,1.1,3.1,0,4.5,0S7,1.1,7,2.5S5.9,5,4.5,5S2,3.9,2,2.5z M15,7c0,0.6-0.4,1-1,1H8v15c0,0.6-0.4,1-1,1
	s-1-0.4-1-1v-6H4v6c0,0.6-0.4,1-1,1s-1-0.4-1-1v-6.6c-1.2-0.7-2-2-2-3.4v-3c0-2.2,1.8-4,4-4h10C14.6,6,15,6.4,15,7z M20.5,0H8.2
	C8.7,0.7,9,1.6,9,2.5C9,3,8.9,3.5,8.7,4h5.2c1.5,0,2.8,1,3.1,2.4c0.3,1.9-1.2,3.6-3,3.6h-4v5h6v-1c0-0.6,0.4-1,1-1h2
	c0.6,0,1,0.4,1,1v1h0.5c1.9,0,3.5-1.6,3.5-3.5v-8C24,1.6,22.4,0,20.5,0L20.5,0z"/>
</svg>
