<?xml version="1.0" encoding="utf-8"?>
<!-- Generator: Adobe Illustrator 26.0.1, SVG Export Plug-In . SVG Version: 6.00 Build 0)  -->
<svg version="1.1" id="Layer_1" xmlns="http://www.w3.org/2000/svg" xmlns:xlink="http://www.w3.org/1999/xlink" x="0px" y="0px"
	 viewBox="0 0 24 24" style="enable-background:new 0 0 24 24;" xml:space="preserve">
<style type="text/css">
	.st0{fill:#FCFCEE;}
</style>
<path class="st0" d="M20,24H4c-0.6,0-1-0.4-1-1c0-3.3,2.7-6,6-6h6c3.3,0,6,2.7,6,6C21,23.6,20.6,24,20,24z M20.5,6H20
	c0-2.2-1.8-4-4-4h-3V1c0-0.6-0.4-1-1-1s-1,0.4-1,1v1H8C5.8,2,4,3.8,4,6H3.5C2.7,6,2,6.7,2,7.5v2C2,10.3,2.7,11,3.5,11H4
	c0,2.2,1.8,4,4,4h8c2.2,0,4-1.8,4-4h0.5c0.8,0,1.5-0.7,1.5-1.5v-2C22,6.7,21.3,6,20.5,6z M10.5,9c0.4,0.4,0.4,1,0,1.4
	c-0.2,0.2-0.5,0.3-0.7,0.3s-0.6,0-0.8-0.2L8.5,9.9L8,10.5c-0.2,0.2-0.5,0.3-0.7,0.3s-0.5-0.1-0.7-0.3c-0.4-0.4-0.4-1,0-1.4l0.5-0.5
	L6.5,8c-0.4-0.4-0.4-1,0-1.4s1-0.4,1.4,0l0.5,0.5L9,6.5c0.4-0.4,1-0.4,1.4,0s0.4,1,0,1.4L9.9,8.5L10.5,9z M17.5,9
	c0.4,0.4,0.4,1,0,1.4c-0.2,0.2-0.5,0.3-0.7,0.3s-0.5-0.1-0.7-0.3l-0.5-0.5L15,10.5c-0.2,0.2-0.5,0.3-0.7,0.3s-0.5-0.1-0.7-0.3
	c-0.4-0.4-0.4-1,0-1.4l0.5-0.5L13.5,8c-0.4-0.4-0.4-1,0-1.4s1-0.4,1.4,0l0.5,0.5L16,6.5c0.4-0.4,1-0.4,1.4,0s0.4,1,0,1.4l-0.5,0.5
	C16.9,8.5,17.5,9,17.5,9z"/>
</svg>
