<?xml version="1.0" encoding="utf-8"?>
<!-- Generator: Adobe Illustrator 26.0.1, SVG Export Plug-In . SVG Version: 6.00 Build 0)  -->
<svg version="1.1" id="Layer_1" xmlns="http://www.w3.org/2000/svg" xmlns:xlink="http://www.w3.org/1999/xlink" x="0px" y="0px"
	 viewBox="0 0 512 512" style="enable-background:new 0 0 512 512;" xml:space="preserve">
<style type="text/css">
	.st0{fill:#FCFCEE;}
</style>
<path class="st0" d="M402.7,207.4C382.6,233,328.4,256,256,256s-126.6-22.7-146.7-48.4v-21.3c0.3-0.1-0.3-0.2,0-0.3
	C122.1,116.7,183,64,256,64s133.8,52.7,146.7,122V207.4z M443.9,223.3c-26.4,44.3-99.4,75.4-187.9,75.4S94.5,267.6,68.1,223.3
	C13.4,249.3,0,280.5,0,304.5c0,69.7,110.1,122.2,256,122.2s256-52.5,256-122.2C512,280.5,498.7,249.3,443.9,223.3L443.9,223.3z
	 M96,362.7c-17.7,0-32-14.3-32-32s14.3-32,32-32s32,14.3,32,32C128,348.3,113.7,362.7,96,362.7z M256,394.7c-17.7,0-32-14.3-32-32
	s14.3-32,32-32s32,14.3,32,32C288,380.3,273.7,394.7,256,394.7z M416,362.7c-17.7,0-32-14.3-32-32s14.3-32,32-32s32,14.3,32,32
	C448,348.3,433.7,362.7,416,362.7z"/>
</svg>
